<?xml version="1.0" standalone="no"?>
<!DOCTYPE svg PUBLIC "-//W3C//DTD SVG 20010904//EN"
 "http://www.w3.org/TR/2001/REC-SVG-20010904/DTD/svg10.dtd">
<svg version="1.0" xmlns="http://www.w3.org/2000/svg"
 width="450.000000pt" height="450.000000pt" viewBox="0 0 450.000000 450.000000"
 preserveAspectRatio="xMidYMid meet">

<g transform="translate(0.000000,450.000000) scale(0.100000,-0.100000)"
fill="#005B94" stroke="none">
<path d="M2104 3830 c-250 -27 -482 -110 -689 -248 -136 -90 -319 -273 -408
-408 -302 -456 -336 -1017 -91 -1518 167 -341 528 -646 890 -751 310 -90 636
-85 934 15 383 128 727 445 885 815 146 341 163 725 49 1071 -42 129 -137 311
-214 414 -231 307 -530 500 -901 581 -72 15 -337 42 -374 38 -5 -1 -42 -5 -81
-9z m336 -160 c108 -18 110 -20 48 -45 -67 -27 -130 -63 -225 -128 l-73 -49
-107 18 c-135 23 -402 24 -510 2 -40 -8 -73 -14 -73 -13 0 2 30 21 68 43 126
74 303 140 447 166 95 17 334 20 425 6z m471 -162 c43 -23 73 -47 95 -78 l33
-46 -157 0 c-107 0 -191 -6 -263 -18 l-106 -19 -68 23 -68 22 49 31 c122 76
241 115 351 116 62 1 80 -3 134 -31z m-894 -184 c21 -6 17 -12 -60 -98 -45
-50 -94 -105 -108 -122 -14 -17 -72 -62 -130 -99 -151 -98 -258 -184 -392
-315 -92 -89 -209 -226 -264 -309 -6 -9 -13 9 -38 99 -31 117 -35 282 -9 370
78 264 318 442 649 480 79 9 307 5 352 -6z m219 -59 c-26 -19 -42 -19 -26 0 7
8 20 15 29 15 13 -1 13 -3 -3 -15z m778 -35 c38 -4 73 -14 77 -22 9 -13 13
-208 5 -208 -3 0 -42 29 -89 64 -46 35 -121 86 -166 114 l-83 51 38 4 c73 7
149 6 218 -3z m-412 -91 c158 -79 386 -235 457 -312 l24 -26 -23 -98 c-36
-157 -95 -315 -190 -508 -96 -195 -250 -439 -302 -478 -94 -70 -480 -227 -559
-227 -79 0 -444 225 -558 344 l-35 36 31 123 c42 167 90 291 183 482 77 157
163 303 249 419 41 56 51 62 195 131 156 76 370 155 419 155 15 0 64 -18 109
-41z m696 -3 c130 -82 192 -239 163 -412 -17 -101 -21 -104 -70 -40 -23 31
-65 82 -94 115 l-53 59 8 79 c5 43 8 111 6 151 -2 39 -2 72 0 72 1 0 19 -11
40 -24z m-1768 -518 c-91 -172 -203 -459 -225 -580 -4 -21 -11 -38 -15 -38 -6
0 -94 118 -135 182 -17 27 -16 29 9 72 35 60 118 170 189 251 53 59 210 205
222 205 3 0 -17 -42 -45 -92z m1800 -108 l33 -52 -18 -31 c-54 -96 -146 -208
-273 -336 -79 -79 -145 -142 -147 -139 -2 2 27 64 64 138 81 159 149 327 186
460 14 52 28 101 31 109 5 15 66 -58 124 -149z m266 -87 l5 -118 -23 55 c-13
30 -29 64 -35 74 -8 15 -6 33 11 77 27 76 35 60 42 -88z m-2650 -269 c-23 -56
-23 -56 -29 -25 -4 18 -9 75 -12 129 l-5 97 34 -72 35 -73 -23 -56z m2523 63
c126 -426 -79 -758 -534 -863 -61 -14 -120 -19 -250 -19 -93 0 -183 4 -199 8
l-28 8 54 57 c29 31 80 88 113 126 39 45 90 89 145 124 255 165 503 391 623
569 23 34 45 63 48 63 3 0 16 -33 28 -73z m-2361 -230 c22 -29 65 -82 96 -118
46 -52 55 -69 51 -90 -3 -14 -6 -81 -7 -147 l-1 -122 -39 23 c-56 31 -105 88
-140 163 -25 53 -29 76 -30 146 0 71 17 198 27 198 1 0 21 -24 43 -53z m351
-356 c50 -42 178 -129 243 -166 l41 -23 -56 -7 c-74 -9 -267 9 -278 27 -10 15
-12 208 -3 208 3 0 27 -17 53 -39z m831 -226 c-7 -8 -22 -15 -34 -15 -20 1
-20 2 4 15 33 19 46 19 30 0z m-230 -109 l63 -23 -68 -38 c-144 -81 -247 -110
-357 -103 -82 6 -165 51 -208 113 l-28 40 172 2 c104 1 196 7 236 16 93 21
120 20 190 -7z m340 -91 c118 -24 366 -30 485 -12 55 9 101 14 103 12 7 -6
-124 -78 -203 -110 -192 -79 -341 -108 -555 -107 -80 1 -174 7 -210 14 l-65
13 95 47 c52 26 131 72 175 102 44 31 85 56 90 56 6 0 44 -7 85 -15z"/>
</g>
</svg>
