<?xml version="1.0" standalone="no"?>
<!DOCTYPE svg PUBLIC "-//W3C//DTD SVG 20010904//EN"
 "http://www.w3.org/TR/2001/REC-SVG-20010904/DTD/svg10.dtd">
<svg version="1.0" xmlns="http://www.w3.org/2000/svg"
 width="450.000000pt" height="450.000000pt" viewBox="0 0 450.000000 450.000000"
 preserveAspectRatio="xMidYMid meet">

<g transform="translate(0.000000,450.000000) scale(0.100000,-0.100000)"
fill="#005B94" stroke="none">
<path d="M220 3310 l0 -980 344 0 345 0 -21 -47 c-28 -63 -30 -167 -4 -243 27
-77 120 -169 196 -196 170 -58 353 18 426 178 37 82 40 188 7 261 l-22 47 345
0 344 0 0 243 0 243 -64 11 c-136 23 -285 130 -348 249 -57 106 -73 243 -43
359 47 180 207 327 391 358 l64 11 0 243 0 243 -980 0 -980 0 0 -980z"/>
<path d="M3221 2665 c-71 -20 -110 -45 -166 -107 -83 -93 -106 -231 -55 -345
l19 -43 -345 0 -344 0 0 -243 0 -243 64 -11 c136 -23 275 -122 343 -243 61
-107 79 -246 48 -365 -47 -179 -208 -327 -391 -358 l-64 -11 0 -243 0 -243
980 0 980 0 0 980 0 980 -344 0 -345 0 22 48 c32 72 29 178 -8 260 -67 150
-238 230 -394 187z"/>
<path d="M220 1195 l0 -975 975 0 975 0 0 341 c0 269 3 340 13 335 101 -42
215 -46 299 -8 65 28 133 94 165 161 24 49 28 68 28 146 0 78 -4 97 -28 146
-83 170 -274 232 -465 153 -9 -5 -12 66 -12 335 l0 341 -242 -2 -243 -3 -7
-55 c-27 -191 -210 -368 -414 -401 -250 -40 -516 154 -551 401 l-8 55 -243 3
-242 2 0 -975z m404 800 c36 -99 83 -170 160 -242 237 -222 590 -219 828 6 72
68 119 139 154 236 l22 60 133 0 134 0 5 -382 5 -382 109 61 c99 56 114 62
170 62 175 2 280 -189 186 -338 -42 -65 -108 -101 -186 -100 -56 0 -71 6 -170
62 l-109 61 -5 -382 -5 -382 -860 0 -860 0 -3 850 c-1 468 0 856 3 863 3 9 36
12 136 10 l131 -3 22 -60z"/>
</g>
</svg>
