<?xml version="1.0" standalone="no"?>
<!DOCTYPE svg PUBLIC "-//W3C//DTD SVG 20010904//EN"
 "http://www.w3.org/TR/2001/REC-SVG-20010904/DTD/svg10.dtd">
<svg version="1.0" xmlns="http://www.w3.org/2000/svg"
 width="450.000000pt" height="450.000000pt" viewBox="0 0 450.000000 450.000000"
 preserveAspectRatio="xMidYMid meet">

<g transform="translate(0.000000,450.000000) scale(0.100000,-0.100000)"
fill="#005B94" stroke="none">
<path d="M2175 3904 c-198 -20 -381 -103 -523 -238 -124 -118 -198 -238 -249
-403 -24 -79 -26 -104 -26 -238 0 -134 2 -159 26 -237 94 -309 307 -521 614
-615 78 -23 104 -26 238 -26 134 0 159 3 238 26 494 150 757 650 596 1132
-116 346 -422 578 -789 598 -47 3 -103 3 -125 1z"/>
<path d="M1540 2033 c-202 -20 -384 -90 -545 -210 -234 -175 -382 -434 -414
-726 -6 -53 -11 -186 -11 -297 l0 -200 1685 0 1685 0 0 173 c0 341 -27 494
-120 682 -156 317 -476 538 -830 574 -93 10 -1360 13 -1450 4z"/>
</g>
</svg>
